<?xml version="1.0" standalone="no"?>
<!DOCTYPE svg PUBLIC "-//W3C//DTD SVG 20010904//EN"
 "http://www.w3.org/TR/2001/REC-SVG-20010904/DTD/svg10.dtd">
<svg version="1.0" xmlns="http://www.w3.org/2000/svg"
 width="512.000000pt" height="512.000000pt" viewBox="0 0 512.000000 512.000000"
 preserveAspectRatio="xMidYMid meet">

<g transform="translate(0.000000,512.000000) scale(0.100000,-0.100000)"
fill="#000000" stroke="none">
<path d="M2032 4835 c-163 -30 -363 -117 -492 -214 -84 -63 -214 -199 -269
-280 -64 -94 -137 -253 -167 -366 -35 -132 -44 -355 -21 -490 41 -233 144
-438 306 -608 228 -240 523 -367 852 -367 192 0 355 38 524 123 276 138 491
387 589 682 75 229 75 504 0 730 -35 105 -112 254 -173 335 -62 82 -198 214
-276 267 -134 90 -308 161 -463 188 -103 18 -310 18 -410 0z m378 -319 c167
-35 308 -112 431 -235 167 -168 249 -364 249 -601 0 -237 -82 -433 -249 -601
-167 -166 -364 -248 -597 -249 -180 0 -329 44 -474 141 -189 127 -319 318
-366 539 -18 84 -18 256 0 340 70 331 329 592 661 665 80 18 264 18 345 1z"/>
<path d="M1725 2283 c-631 -81 -1154 -502 -1365 -1098 -66 -186 -81 -285 -87
-551 -5 -215 -3 -245 12 -278 38 -79 141 -109 219 -64 75 43 80 63 88 323 5
177 11 250 26 315 61 256 176 464 362 650 159 159 335 267 540 330 189 59 211
60 934 60 l662 0 44 23 c66 33 93 78 88 148 -5 65 -32 109 -82 133 -30 14
-106 16 -723 15 -378 -1 -701 -4 -718 -6z"/>
<path d="M3890 2069 c-29 -12 -67 -45 -83 -74 -8 -13 -14 -124 -17 -340 l-5
-320 -322 -5 c-305 -5 -323 -6 -349 -26 -98 -72 -96 -204 3 -265 38 -24 42
-24 356 -27 l317 -3 0 -311 c0 -265 2 -315 16 -344 24 -50 68 -77 133 -82 66
-4 111 20 145 78 20 33 21 53 24 348 l3 312 302 0 c294 0 304 1 347 23 66 33
93 78 88 148 -5 65 -32 109 -82 133 -29 14 -79 16 -344 16 l-311 0 -3 318 c-3
313 -3 317 -27 355 -39 64 -124 93 -191 66z"/>
</g>
</svg>
