<?xml version="1.0" standalone="no"?>
<!DOCTYPE svg PUBLIC "-//W3C//DTD SVG 20010904//EN"
 "http://www.w3.org/TR/2001/REC-SVG-20010904/DTD/svg10.dtd">
<svg version="1.0" xmlns="http://www.w3.org/2000/svg"
 width="512.000000pt" height="512.000000pt" viewBox="0 0 512.000000 512.000000"
 preserveAspectRatio="xMidYMid meet">

<g transform="translate(0.000000,512.000000) scale(0.100000,-0.100000)"
fill="#000000" stroke="none">
<path d="M1900 4945 c-293 -47 -576 -227 -747 -476 -83 -121 -153 -299 -178
-454 -44 -272 24 -579 178 -804 174 -253 455 -431 757 -476 612 -93 1183 326
1275 935 73 479 -168 951 -596 1166 -220 110 -450 146 -689 109z m370 -328
c209 -57 368 -171 480 -344 89 -136 125 -259 125 -433 0 -174 -36 -297 -125
-433 -238 -366 -718 -474 -1087 -247 -226 139 -363 368 -380 636 -26 400 254
753 662 833 67 13 257 6 325 -12z"/>
<path d="M4215 3660 c-50 -25 -76 -60 -82 -110 -11 -81 -1 -98 153 -266 l145
-159 -565 -5 c-551 -5 -565 -6 -592 -26 -53 -39 -69 -71 -69 -134 0 -63 16
-95 69 -134 27 -20 41 -21 592 -26 l565 -5 -145 -159 c-154 -168 -164 -185
-153 -266 6 -50 33 -85 83 -110 49 -24 87 -25 136 -2 44 20 571 588 594 639 8
18 14 46 14 63 0 17 -6 45 -14 63 -19 43 -548 617 -589 639 -43 23 -94 22
-142 -2z"/>
<path d="M1385 2389 c-319 -42 -605 -188 -833 -423 -189 -195 -314 -437 -368
-712 -25 -124 -25 -365 -1 -453 46 -169 103 -267 227 -391 124 -124 221 -180
391 -227 60 -17 149 -18 1279 -18 1130 0 1219 1 1279 18 170 47 267 103 391
227 124 124 181 221 227 391 27 97 24 340 -6 479 -59 276 -182 502 -385 706
-201 202 -420 322 -704 386 -94 21 -118 22 -762 24 -366 1 -696 -2 -735 -7z
m1480 -342 c120 -32 295 -117 386 -186 249 -189 408 -490 425 -801 5 -78 2
-122 -10 -173 -46 -196 -195 -346 -388 -392 -94 -22 -2302 -22 -2396 0 -193
46 -342 196 -388 392 -46 194 31 507 176 724 54 81 196 222 279 278 129 88
306 158 457 180 32 5 352 8 709 7 l650 -2 100 -27z"/>
</g>
</svg>
